<svg xmlns="http://www.w3.org/2000/svg" viewBox="0 0 64 64" width="64" height="64"><ellipse cx="32.0" cy="48.5" rx="13.0" ry="11.2" fill="#7fb0bd" stroke="#3b3540" stroke-width="1.9"/><ellipse cx="23.4" cy="55.0" rx="4.0" ry="3.2" fill="#7fb0bd" stroke="#3b3540" stroke-width="1.9"/><ellipse cx="40.6" cy="55.0" rx="4.0" ry="3.2" fill="#7fb0bd" stroke="#3b3540" stroke-width="1.9"/><path d="M15.5 17.0 Q20.5 5.6 26.5 16.0 Z" fill="#7fb0bd" stroke="#3b3540" stroke-width="1.9" stroke-linejoin="round"/><path d="M18.7 15.6 Q20.7 10.0 23.7 15.2 Z" fill="#f2c6cd"/><path d="M37.3 17.0 Q43.5 5.6 48.3 16.0 Z" fill="#7fb0bd" stroke="#3b3540" stroke-width="1.9" stroke-linejoin="round"/><path d="M40.5 15.6 Q43.3 10.0 45.5 15.2 Z" fill="#f2c6cd"/><circle cx="32.0" cy="25.5" r="16.0" fill="#7fb0bd" stroke="#3b3540" stroke-width="1.9"/><ellipse cx="32.0" cy="28.9" rx="11.6" ry="9.6" fill="#e4f2f5"/><ellipse cx="21.4" cy="28.9" rx="3.1" ry="2.1" fill="#f0a6a6" opacity="0.6"/><ellipse cx="42.6" cy="28.9" rx="3.1" ry="2.1" fill="#f0a6a6" opacity="0.6"/><ellipse cx="26.0" cy="24.7" rx="4.3" ry="4.8" fill="#3b3540"/><circle cx="24.9" cy="22.9" r="1.5" fill="#ffffff"/><circle cx="27.0" cy="26.7" r="0.8" fill="#ffffff" opacity="0.75"/><ellipse cx="38.0" cy="24.7" rx="4.3" ry="4.8" fill="#3b3540"/><circle cx="39.1" cy="22.9" r="1.5" fill="#ffffff"/><circle cx="37.0" cy="26.7" r="0.8" fill="#ffffff" opacity="0.75"/><ellipse cx="32.0" cy="31.1" rx="2.0" ry="1.6" fill="#3b3540"/><path d="M28.8 33.9 Q32.0 36.3 35.2 33.9" fill="none" stroke="#3b3540" stroke-width="1.6" stroke-linecap="round"/><path d="M14 27 L5 25 M14 30 L5 31 M50 27 L59 25 M50 30 L59 31" stroke="#3b3540" stroke-width="1.4" stroke-linecap="round" fill="none"/></svg>